<?xml version="1.0" standalone="no"?>
<!DOCTYPE svg PUBLIC "-//W3C//DTD SVG 20010904//EN"
 "http://www.w3.org/TR/2001/REC-SVG-20010904/DTD/svg10.dtd">
<svg version="1.0" xmlns="http://www.w3.org/2000/svg"
 width="260.000000pt" height="260.000000pt" viewBox="0 0 260.000000 260.000000"
 preserveAspectRatio="xMidYMid meet">
<metadata>
Created by potrace 1.14, written by Peter Selinger 2001-2017
</metadata>
<g transform="translate(0.000000,260.000000) scale(0.100000,-0.100000)"
fill="#000000" stroke="none">
<path d="M188 2301 c-10 -10 -18 -25 -18 -34 0 -10 -4 -17 -10 -17 -6 0 -10
-27 -10 -60 0 -33 4 -60 10 -60 6 0 10 -7 10 -15 0 -15 41 -58 48 -50 3 2 -6
13 -19 24 -22 17 -24 27 -24 101 0 73 2 84 23 100 12 10 22 21 22 24 0 11 -15
5 -32 -13z"/>
<path d="M2400 2312 c0 -7 4 -12 9 -12 5 0 17 -14 25 -32 18 -34 22 -138 6
-138 -5 0 -10 -9 -10 -20 0 -11 -7 -23 -15 -26 -8 -4 -15 -11 -15 -17 0 -6 11
0 25 13 14 13 25 29 25 37 0 7 5 13 10 13 6 0 10 27 10 60 0 33 -4 60 -10 60
-5 0 -10 6 -10 13 0 8 -11 24 -25 37 -14 13 -25 18 -25 12z"/>
<path d="M2366 2265 c-26 -72 -85 -155 -110 -155 -6 0 -20 -8 -31 -17 -19 -15
-19 -15 10 -9 59 14 154 138 142 186 -3 12 -5 11 -11 -5z"/>
<path d="M321 2215 c20 -22 39 -47 41 -55 3 -8 7 -10 11 -4 3 6 -15 31 -41 55
-46 43 -46 43 -11 4z"/>
<path d="M1095 2050 c4 -6 62 -10 141 -10 83 0 134 4 134 10 0 6 -54 10 -141
10 -91 0 -138 -4 -134 -10z"/>
<path d="M430 2002 c0 -6 4 -13 9 -17 20 -12 41 -70 41 -112 0 -42 -10 -69
-39 -105 -8 -10 -12 -18 -9 -18 3 0 14 8 24 18 43 39 56 111 30 173 -15 36
-56 80 -56 61z"/>
<path d="M1255 1877 c-72 -72 -104 -107 -71 -77 114 107 208 201 204 205 -2 2
-62 -55 -133 -128z"/>
<path d="M1410 2000 c0 -6 52 -10 135 -10 83 0 135 4 135 10 0 6 -52 10 -135
10 -83 0 -135 -4 -135 -10z"/>
<path d="M2135 1996 c-50 -54 -62 -145 -27 -205 14 -26 42 -50 42 -36 0 2 -6
10 -12 17 -51 55 -51 149 1 211 16 19 12 32 -4 13z"/>
<path d="M0 1980 c0 -6 38 -10 94 -10 53 0 98 4 101 10 4 6 -30 10 -94 10 -61
0 -101 -4 -101 -10z"/>
<path d="M1014 1957 c-36 -40 -89 -79 -131 -98 -32 -13 -44 -29 -23 -29 15 0
54 23 63 38 4 6 17 12 27 12 18 0 20 -7 20 -61 0 -37 4 -58 10 -54 6 3 10 38
10 78 0 66 2 73 32 104 17 18 29 35 27 38 -3 3 -19 -10 -35 -28z"/>
<path d="M2390 1980 c20 -13 210 -13 210 0 0 6 -44 10 -112 10 -77 0 -108 -3
-98 -10z"/>
<path d="M1090 1934 c0 -8 5 -12 10 -9 6 3 10 10 10 16 0 5 -4 9 -10 9 -5 0
-10 -7 -10 -16z"/>
<path d="M1740 1931 c0 -4 14 -20 31 -37 17 -16 35 -38 39 -49 7 -15 9 -16 9
-4 1 9 -17 34 -39 57 -22 22 -40 37 -40 33z"/>
<path d="M0 1870 c0 -6 35 -10 84 -10 47 0 88 5 91 10 4 6 -27 10 -84 10 -54
0 -91 -4 -91 -10z"/>
<path d="M1090 1825 c0 -30 5 -55 10 -55 6 0 10 25 10 55 0 30 -4 55 -10 55
-5 0 -10 -25 -10 -55z"/>
<path d="M2405 1870 c3 -5 44 -10 90 -10 46 0 87 5 90 10 4 6 -28 10 -90 10
-62 0 -94 -4 -90 -10z"/>
<path d="M0 1770 c0 -6 43 -10 110 -10 67 0 110 4 110 10 0 6 -43 10 -110 10
-67 0 -110 -4 -110 -10z"/>
<path d="M815 1765 c-5 -11 -10 -24 -13 -30 -3 -5 3 -3 13 7 9 9 15 22 12 30
-3 9 -7 7 -12 -7z"/>
<path d="M2370 1770 c0 -6 45 -10 115 -10 70 0 115 4 115 10 0 6 -45 10 -115
10 -70 0 -115 -4 -115 -10z"/>
<path d="M260 1685 c0 -6 56 -66 125 -135 69 -69 125 -120 125 -115 0 6 -56
66 -125 135 -69 69 -125 120 -125 115z"/>
<path d="M540 1684 c0 -6 56 -65 125 -132 69 -67 125 -119 125 -114 0 4 -56
63 -125 132 -69 68 -125 120 -125 114z"/>
<path d="M992 1567 c-67 -67 -122 -126 -122 -131 0 -8 183 174 234 232 47 54
1 12 -112 -101z"/>
<path d="M1984 1565 c-70 -68 -126 -126 -123 -129 3 -3 63 53 134 124 71 72
127 130 124 130 -3 0 -64 -56 -135 -125z"/>
<path d="M2261 1564 c-68 -69 -121 -127 -119 -129 2 -2 62 54 133 125 71 72
125 130 119 130 -6 0 -66 -56 -133 -126z"/>
<path d="M1805 1613 c-9 -21 -32 -69 -51 -106 -19 -37 -34 -70 -34 -73 0 -14
22 11 37 44 9 20 19 39 22 42 10 9 29 54 36 85 4 16 12 33 18 37 9 6 9 8 0 8
-7 0 -19 -17 -28 -37z"/>
<path d="M830 1619 c0 -5 5 -7 10 -4 6 3 10 8 10 11 0 2 -4 4 -10 4 -5 0 -10
-5 -10 -11z"/>
<path d="M1302 1563 c12 -15 138 -18 138 -4 0 5 -33 11 -74 13 -59 2 -72 0
-64 -9z"/>
<path d="M830 1510 c0 -38 4 -59 10 -55 6 3 10 28 10 55 0 27 -4 52 -10 55 -6
4 -10 -17 -10 -55z"/>
<path d="M1178 1543 c18 -2 45 -2 60 0 15 2 0 4 -33 4 -33 0 -45 -2 -27 -4z"/>
<path d="M1488 1543 c17 -2 47 -2 65 0 17 2 3 4 -33 4 -36 0 -50 -2 -32 -4z"/>
<path d="M1620 1493 c0 -5 9 -18 20 -28 11 -10 20 -14 20 -8 0 5 -9 18 -20 28
-11 10 -20 14 -20 8z"/>
<path d="M904 1357 c-34 -39 -44 -66 -44 -112 0 -47 31 -109 59 -120 13 -5 13
-4 0 12 -30 38 -39 64 -39 114 0 41 6 60 26 86 29 39 28 55 -2 20z"/>
<path d="M1171 1366 c-9 -10 -8 -16 3 -25 10 -9 16 -8 25 3 9 10 8 16 -3 25
-10 9 -16 8 -25 -3z"/>
<path d="M1401 1348 c-8 -18 -19 -36 -24 -39 -5 -4 -7 -15 -5 -25 3 -14 10 -5
26 30 12 27 21 53 20 58 -2 4 -9 -7 -17 -24z"/>
<path d="M1573 1365 c-8 -9 -9 -15 0 -24 15 -15 24 -14 30 3 8 21 -15 37 -30
21z"/>
<path d="M2017 1249 c-70 -71 -123 -129 -119 -129 14 0 259 247 251 254 -2 2
-61 -54 -132 -125z"/>
<path d="M576 1328 c21 -24 59 -62 84 -86 25 -24 64 -62 88 -85 23 -23 42 -38
42 -35 0 7 -240 248 -247 248 -3 0 12 -19 33 -42z"/>
<path d="M1730 1334 c21 -37 29 -154 10 -154 -5 0 -10 -5 -10 -12 0 -6 -7 -20
-17 -30 -9 -10 -12 -18 -6 -18 11 0 31 23 51 57 27 50 6 172 -33 187 -10 4 -9
-4 5 -30z"/>
<path d="M1000 1305 c0 -2 15 -19 33 -37 19 -18 37 -42 41 -53 6 -13 10 -16
13 -7 3 7 -12 32 -34 56 -34 40 -53 54 -53 41z"/>
<path d="M1344 1230 c-4 -22 -11 -43 -15 -46 -12 -7 -11 -44 1 -44 6 0 10 11
10 24 0 29 36 76 58 76 10 0 23 -14 30 -32 37 -90 50 -97 96 -49 21 22 26 35
21 48 -8 16 -9 15 -13 -6 -9 -55 -65 -71 -75 -22 -8 37 -45 77 -79 85 -26 6
-28 4 -34 -34z"/>
<path d="M850 925 c0 -88 4 -134 10 -130 6 4 10 58 10 130 0 72 -4 126 -10
130 -6 4 -10 -42 -10 -130z"/>
<path d="M1750 931 c0 -76 4 -132 10 -136 6 -4 10 42 10 129 0 84 -4 136 -10
136 -6 0 -10 -50 -10 -129z"/>
<path d="M669 738 c-32 -26 -49 -68 -49 -117 0 -61 15 -96 49 -116 l26 -16
-25 22 c-23 19 -25 28 -25 104 0 74 3 86 24 109 26 27 25 35 0 14z"/>
<path d="M733 725 l-28 -25 33 16 c44 21 198 17 212 -6 6 -9 10 -10 10 -3 0
27 -44 43 -122 43 -68 0 -80 -3 -105 -25z"/>
<path d="M1662 734 c-12 -8 -22 -21 -22 -27 0 -7 4 -6 10 3 14 23 168 27 212
6 l33 -16 -28 25 c-25 22 -37 25 -105 25 -54 0 -84 -5 -100 -16z"/>
<path d="M1930 725 c22 -24 25 -35 25 -110 0 -76 -2 -85 -25 -104 l-25 -22 26
16 c34 20 49 55 49 115 0 53 -28 113 -58 125 -11 4 -9 -2 8 -20z"/>
<path d="M535 480 c-4 -6 8 -10 30 -10 22 0 34 4 30 10 -3 6 -17 10 -30 10
-13 0 -27 -4 -30 -10z"/>
<path d="M990 480 c0 -6 65 -10 176 -10 114 0 173 3 169 10 -4 6 -73 10 -176
10 -106 0 -169 -4 -169 -10z"/>
<path d="M1360 480 c0 -6 52 -10 135 -10 83 0 135 4 135 10 0 6 -52 10 -135
10 -83 0 -135 -4 -135 -10z"/>
<path d="M2005 480 c-4 -6 8 -10 30 -10 22 0 34 4 30 10 -3 6 -17 10 -30 10
-13 0 -27 -4 -30 -10z"/>
<path d="M480 411 c-8 -10 -21 -27 -27 -39 -15 -26 -17 -122 -3 -122 6 0 10
-8 10 -17 0 -10 13 -27 28 -37 27 -19 27 -19 12 0 -55 71 -55 149 -1 217 18
22 1 21 -19 -2z"/>
<path d="M924 397 c35 -46 36 -129 3 -178 l-23 -34 -134 -3 c-185 -4 -196 -22
-14 -22 l140 0 25 27 c38 44 49 70 49 118 0 44 -10 71 -39 108 -26 32 -32 17
-7 -16z"/>
<path d="M1688 413 c-54 -62 -51 -175 6 -222 22 -19 20 -4 -4 26 -28 36 -28
133 1 179 22 37 21 44 -3 17z"/>
<path d="M2120 414 c54 -69 55 -155 3 -212 -24 -26 -13 -26 13 -1 48 48 45
178 -4 213 -27 19 -27 19 -12 0z"/>
<path d="M535 170 c-4 -6 8 -10 30 -10 22 0 34 4 30 10 -3 6 -17 10 -30 10
-13 0 -27 -4 -30 -10z"/>
<path d="M1740 170 c0 -6 65 -10 176 -10 114 0 173 3 169 10 -4 6 -73 10 -176
10 -106 0 -169 -4 -169 -10z"/>
</g>
</svg>
